<svg xmlns="http://www.w3.org/2000/svg" xmlns:xlink="http://www.w3.org/1999/xlink" width="643.356" height="606.221" viewBox="0 0 643.356 606.221" preserveAspectRatio="none">
  <defs>
    <clipPath id="clip-path">
      <rect id="Rectangle_14022" data-name="Rectangle 14022" width="40.642" height="101.123" fill="#44b653"/>
    </clipPath>
  </defs>
  <g id="area-rural" transform="translate(9300.355 23222.221)">
    <rect id="Rectangle_14654" data-name="Rectangle 14654" width="642.287" height="99" transform="translate(-9300 -22715)" fill="none"/>
    <g id="Group_13701" data-name="Group 13701" transform="translate(-9300 -23222.221)" opacity="0">
      <path id="Path_18880" data-name="Path 18880" d="M0,0H134.84V450.755H0Z" fill="#fff"/>
      <rect id="Rectangle_14006" data-name="Rectangle 14006" width="36.026" height="62.54" transform="translate(24.703 183.619)" fill="#fff"/>
      <rect id="Rectangle_14023" data-name="Rectangle 14023" width="36.026" height="62.54" transform="translate(24.703 107.678)" fill="#fff"/>
      <rect id="Rectangle_14028" data-name="Rectangle 14028" width="36.026" height="62.54" transform="translate(24.703 31.736)" fill="#fff"/>
      <rect id="Rectangle_14009" data-name="Rectangle 14009" width="36.026" height="63.434" transform="translate(24.703 259.562)" fill="#fff"/>
      <rect id="Rectangle_14011" data-name="Rectangle 14011" width="36.026" height="62.54" transform="translate(24.703 336.397)" fill="#fff"/>
      <rect id="Rectangle_14007" data-name="Rectangle 14007" width="39.114" height="62.54" transform="translate(74.111 183.619)" fill="#fff"/>
      <rect id="Rectangle_14024" data-name="Rectangle 14024" width="39.114" height="62.54" transform="translate(74.111 107.678)" fill="#fff"/>
      <rect id="Rectangle_14027" data-name="Rectangle 14027" width="39.114" height="62.54" transform="translate(74.111 31.736)" fill="#fff"/>
      <rect id="Rectangle_14008" data-name="Rectangle 14008" width="39.114" height="63.434" transform="translate(74.111 259.562)" fill="#fff"/>
      <g id="Group_12583" data-name="Group 12583" transform="translate(133.92 181.807)">
        <path id="Path_18923" data-name="Path 18923" d="M0,0H144.1V268.949H0Z" fill="#fff"/>
        <rect id="Rectangle_14012" data-name="Rectangle 14012" width="37.055" height="32.164" transform="translate(27.792 184.965)" fill="#fff"/>
        <rect id="Rectangle_14015" data-name="Rectangle 14015" width="37.055" height="32.164" transform="translate(27.792 137.613)" fill="#fff"/>
        <rect id="Rectangle_14031" data-name="Rectangle 14031" width="37.055" height="32.164" transform="translate(27.792 42.912)" fill="#fff"/>
        <rect id="Rectangle_14025" data-name="Rectangle 14025" width="37.055" height="32.164" transform="translate(27.792 90.262)" fill="#fff"/>
        <rect id="Rectangle_14013" data-name="Rectangle 14013" width="37.055" height="32.164" transform="translate(79.257 184.965)" fill="#fff"/>
        <rect id="Rectangle_14016" data-name="Rectangle 14016" width="37.055" height="32.164" transform="translate(79.257 137.613)" fill="#fff"/>
        <rect id="Rectangle_14032" data-name="Rectangle 14032" width="37.055" height="32.164" transform="translate(79.257 42.912)" fill="#fff"/>
        <rect id="Rectangle_14026" data-name="Rectangle 14026" width="37.055" height="32.164" transform="translate(79.257 90.262)" fill="#fff"/>
      </g>
      <rect id="Rectangle_14010" data-name="Rectangle 14010" width="39.114" height="62.54" transform="translate(74.111 336.397)" fill="#fff"/>
    </g>
    <rect id="Rectangle_14656" data-name="Rectangle 14656" width="643.356" height="50.179" transform="translate(-9300.355 -22764.996)" fill="#44b653"/>
    <g id="Group_13702" data-name="Group 13702" transform="translate(-8698.477 -22931.186)">
      <g id="Group_12577" data-name="Group 12577" transform="translate(0 58.598)">
        <rect id="Rectangle_14021" data-name="Rectangle 14021" width="2.494" height="90.099" transform="translate(19.074 11.023)" fill="#44b653"/>
        <g id="Group_12574" data-name="Group 12574" transform="translate(0 0)">
          <g id="Group_12573" data-name="Group 12573" clip-path="url(#clip-path)">
            <path id="Path_18574" data-name="Path 18574" d="M20.322,157.477h0A21.8,21.8,0,0,1,.052,134.24,21.8,21.8,0,0,1,20.322,157.477Z" transform="translate(0 -76.114)" fill="#44b653"/>
            <path id="Path_18575" data-name="Path 18575" d="M46.861,157.477h0a21.8,21.8,0,0,0,20.27-23.237A21.8,21.8,0,0,0,46.861,157.477Z" transform="translate(-26.541 -76.114)" fill="#44b653"/>
            <path id="Path_18576" data-name="Path 18576" d="M20.322,112.4h0A21.8,21.8,0,0,1,.052,89.166,21.8,21.8,0,0,1,20.322,112.4Z" transform="translate(0 -50.557)" fill="#44b653"/>
            <path id="Path_18577" data-name="Path 18577" d="M46.861,112.4h0a21.8,21.8,0,0,0,20.27-23.237A21.8,21.8,0,0,0,46.861,112.4Z" transform="translate(-26.541 -50.557)" fill="#44b653"/>
            <path id="Path_18578" data-name="Path 18578" d="M20.322,67.329h0A21.8,21.8,0,0,1,.052,44.092,21.8,21.8,0,0,1,20.322,67.329Z" transform="translate(0 -25)" fill="#44b653"/>
            <path id="Path_18579" data-name="Path 18579" d="M46.861,67.329h0a21.8,21.8,0,0,0,20.27-23.237A21.8,21.8,0,0,0,46.861,67.329Z" transform="translate(-26.541 -25)" fill="#44b653"/>
          </g>
        </g>
      </g>
      <g id="Group_12580" data-name="Group 12580" transform="translate(0 0)">
        <rect id="Rectangle_14021-2" data-name="Rectangle 14021" width="2.494" height="90.099" transform="translate(19.074 11.023)" fill="#44b653"/>
        <g id="Group_12574-2" data-name="Group 12574">
          <g id="Group_12573-2" data-name="Group 12573" clip-path="url(#clip-path)">
            <path id="Path_18574-2" data-name="Path 18574" d="M20.322,157.477h0A21.8,21.8,0,0,1,.052,134.24,21.8,21.8,0,0,1,20.322,157.477Z" transform="translate(0 -76.114)" fill="#44b653"/>
            <path id="Path_18575-2" data-name="Path 18575" d="M46.861,157.477h0a21.8,21.8,0,0,0,20.27-23.237A21.8,21.8,0,0,0,46.861,157.477Z" transform="translate(-26.541 -76.114)" fill="#44b653"/>
            <path id="Path_18576-2" data-name="Path 18576" d="M20.322,112.4h0A21.8,21.8,0,0,1,.052,89.166,21.8,21.8,0,0,1,20.322,112.4Z" transform="translate(0 -50.557)" fill="#44b653"/>
            <path id="Path_18577-2" data-name="Path 18577" d="M46.861,112.4h0a21.8,21.8,0,0,0,20.27-23.237A21.8,21.8,0,0,0,46.861,112.4Z" transform="translate(-26.541 -50.557)" fill="#44b653"/>
            <path id="Path_18578-2" data-name="Path 18578" d="M20.322,67.329h0A21.8,21.8,0,0,1,.052,44.092,21.8,21.8,0,0,1,20.322,67.329Z" transform="translate(0 -25)" fill="#44b653"/>
            <path id="Path_18579-2" data-name="Path 18579" d="M46.861,67.329h0a21.8,21.8,0,0,0,20.27-23.237A21.8,21.8,0,0,0,46.861,67.329Z" transform="translate(-26.541 -25)" fill="#44b653"/>
            <path id="Path_18580" data-name="Path 18580" d="M38.568,30.835h0A21.8,21.8,0,0,0,38.568,0,21.8,21.8,0,0,0,38.568,30.835Z" transform="translate(-18.247)" fill="#44b653"/>
          </g>
        </g>
      </g>
    </g>
    <g id="Group_13703" data-name="Group 13703" transform="translate(-8739.071 -22931.186)">
      <g id="Group_12577-2" data-name="Group 12577" transform="translate(0 58.598)">
        <rect id="Rectangle_14021-3" data-name="Rectangle 14021" width="2.494" height="90.099" transform="translate(19.074 11.023)" fill="#44b653"/>
        <g id="Group_12574-3" data-name="Group 12574" transform="translate(0 0)">
          <g id="Group_12573-3" data-name="Group 12573" clip-path="url(#clip-path)">
            <path id="Path_18574-3" data-name="Path 18574" d="M20.322,157.477h0A21.8,21.8,0,0,1,.052,134.24,21.8,21.8,0,0,1,20.322,157.477Z" transform="translate(0 -76.114)" fill="#44b653"/>
            <path id="Path_18575-3" data-name="Path 18575" d="M46.861,157.477h0a21.8,21.8,0,0,0,20.27-23.237A21.8,21.8,0,0,0,46.861,157.477Z" transform="translate(-26.541 -76.114)" fill="#44b653"/>
            <path id="Path_18576-3" data-name="Path 18576" d="M20.322,112.4h0A21.8,21.8,0,0,1,.052,89.166,21.8,21.8,0,0,1,20.322,112.4Z" transform="translate(0 -50.557)" fill="#44b653"/>
            <path id="Path_18577-3" data-name="Path 18577" d="M46.861,112.4h0a21.8,21.8,0,0,0,20.27-23.237A21.8,21.8,0,0,0,46.861,112.4Z" transform="translate(-26.541 -50.557)" fill="#44b653"/>
            <path id="Path_18578-3" data-name="Path 18578" d="M20.322,67.329h0A21.8,21.8,0,0,1,.052,44.092,21.8,21.8,0,0,1,20.322,67.329Z" transform="translate(0 -25)" fill="#44b653"/>
            <path id="Path_18579-3" data-name="Path 18579" d="M46.861,67.329h0a21.8,21.8,0,0,0,20.27-23.237A21.8,21.8,0,0,0,46.861,67.329Z" transform="translate(-26.541 -25)" fill="#44b653"/>
          </g>
        </g>
      </g>
      <g id="Group_12580-2" data-name="Group 12580" transform="translate(0 0)">
        <rect id="Rectangle_14021-4" data-name="Rectangle 14021" width="2.494" height="90.099" transform="translate(19.074 11.023)" fill="#44b653"/>
        <g id="Group_12574-4" data-name="Group 12574">
          <g id="Group_12573-4" data-name="Group 12573" clip-path="url(#clip-path)">
            <path id="Path_18574-4" data-name="Path 18574" d="M20.322,157.477h0A21.8,21.8,0,0,1,.052,134.24,21.8,21.8,0,0,1,20.322,157.477Z" transform="translate(0 -76.114)" fill="#44b653"/>
            <path id="Path_18575-4" data-name="Path 18575" d="M46.861,157.477h0a21.8,21.8,0,0,0,20.27-23.237A21.8,21.8,0,0,0,46.861,157.477Z" transform="translate(-26.541 -76.114)" fill="#44b653"/>
            <path id="Path_18576-4" data-name="Path 18576" d="M20.322,112.4h0A21.8,21.8,0,0,1,.052,89.166,21.8,21.8,0,0,1,20.322,112.4Z" transform="translate(0 -50.557)" fill="#44b653"/>
            <path id="Path_18577-4" data-name="Path 18577" d="M46.861,112.4h0a21.8,21.8,0,0,0,20.27-23.237A21.8,21.8,0,0,0,46.861,112.4Z" transform="translate(-26.541 -50.557)" fill="#44b653"/>
            <path id="Path_18578-4" data-name="Path 18578" d="M20.322,67.329h0A21.8,21.8,0,0,1,.052,44.092,21.8,21.8,0,0,1,20.322,67.329Z" transform="translate(0 -25)" fill="#44b653"/>
            <path id="Path_18579-4" data-name="Path 18579" d="M46.861,67.329h0a21.8,21.8,0,0,0,20.27-23.237A21.8,21.8,0,0,0,46.861,67.329Z" transform="translate(-26.541 -25)" fill="#44b653"/>
            <path id="Path_18580-2" data-name="Path 18580" d="M38.568,30.835h0A21.8,21.8,0,0,0,38.568,0,21.8,21.8,0,0,0,38.568,30.835Z" transform="translate(-18.247)" fill="#44b653"/>
          </g>
        </g>
      </g>
    </g>
    <g id="Group_13704" data-name="Group 13704" transform="translate(-8779.664 -22931.186)">
      <g id="Group_12577-3" data-name="Group 12577" transform="translate(0 58.598)">
        <rect id="Rectangle_14021-5" data-name="Rectangle 14021" width="2.494" height="90.099" transform="translate(19.074 11.023)" fill="#44b653"/>
        <g id="Group_12574-5" data-name="Group 12574" transform="translate(0 0)">
          <g id="Group_12573-5" data-name="Group 12573" clip-path="url(#clip-path)">
            <path id="Path_18574-5" data-name="Path 18574" d="M20.322,157.477h0A21.8,21.8,0,0,1,.052,134.24,21.8,21.8,0,0,1,20.322,157.477Z" transform="translate(0 -76.114)" fill="#44b653"/>
            <path id="Path_18575-5" data-name="Path 18575" d="M46.861,157.477h0a21.8,21.8,0,0,0,20.27-23.237A21.8,21.8,0,0,0,46.861,157.477Z" transform="translate(-26.541 -76.114)" fill="#44b653"/>
            <path id="Path_18576-5" data-name="Path 18576" d="M20.322,112.4h0A21.8,21.8,0,0,1,.052,89.166,21.8,21.8,0,0,1,20.322,112.4Z" transform="translate(0 -50.557)" fill="#44b653"/>
            <path id="Path_18577-5" data-name="Path 18577" d="M46.861,112.4h0a21.8,21.8,0,0,0,20.27-23.237A21.8,21.8,0,0,0,46.861,112.4Z" transform="translate(-26.541 -50.557)" fill="#44b653"/>
            <path id="Path_18578-5" data-name="Path 18578" d="M20.322,67.329h0A21.8,21.8,0,0,1,.052,44.092,21.8,21.8,0,0,1,20.322,67.329Z" transform="translate(0 -25)" fill="#44b653"/>
            <path id="Path_18579-5" data-name="Path 18579" d="M46.861,67.329h0a21.8,21.8,0,0,0,20.27-23.237A21.8,21.8,0,0,0,46.861,67.329Z" transform="translate(-26.541 -25)" fill="#44b653"/>
          </g>
        </g>
      </g>
      <g id="Group_12580-3" data-name="Group 12580" transform="translate(0 0)">
        <rect id="Rectangle_14021-6" data-name="Rectangle 14021" width="2.494" height="90.099" transform="translate(19.074 11.023)" fill="#44b653"/>
        <g id="Group_12574-6" data-name="Group 12574">
          <g id="Group_12573-6" data-name="Group 12573" clip-path="url(#clip-path)">
            <path id="Path_18574-6" data-name="Path 18574" d="M20.322,157.477h0A21.8,21.8,0,0,1,.052,134.24,21.8,21.8,0,0,1,20.322,157.477Z" transform="translate(0 -76.114)" fill="#44b653"/>
            <path id="Path_18575-6" data-name="Path 18575" d="M46.861,157.477h0a21.8,21.8,0,0,0,20.27-23.237A21.8,21.8,0,0,0,46.861,157.477Z" transform="translate(-26.541 -76.114)" fill="#44b653"/>
            <path id="Path_18576-6" data-name="Path 18576" d="M20.322,112.4h0A21.8,21.8,0,0,1,.052,89.166,21.8,21.8,0,0,1,20.322,112.4Z" transform="translate(0 -50.557)" fill="#44b653"/>
            <path id="Path_18577-6" data-name="Path 18577" d="M46.861,112.4h0a21.8,21.8,0,0,0,20.27-23.237A21.8,21.8,0,0,0,46.861,112.4Z" transform="translate(-26.541 -50.557)" fill="#44b653"/>
            <path id="Path_18578-6" data-name="Path 18578" d="M20.322,67.329h0A21.8,21.8,0,0,1,.052,44.092,21.8,21.8,0,0,1,20.322,67.329Z" transform="translate(0 -25)" fill="#44b653"/>
            <path id="Path_18579-6" data-name="Path 18579" d="M46.861,67.329h0a21.8,21.8,0,0,0,20.27-23.237A21.8,21.8,0,0,0,46.861,67.329Z" transform="translate(-26.541 -25)" fill="#44b653"/>
            <path id="Path_18580-3" data-name="Path 18580" d="M38.568,30.835h0A21.8,21.8,0,0,0,38.568,0,21.8,21.8,0,0,0,38.568,30.835Z" transform="translate(-18.247)" fill="#44b653"/>
          </g>
        </g>
      </g>
    </g>
  </g>
</svg>