<svg xmlns="http://www.w3.org/2000/svg" width="281.024" height="648.33" viewBox="0 0 281.024 648.33">
  <path id="mundrow-idade-30" d="M141.494,74.7H111.038c-24.812,0-49.321,7.234-69.338,21.9a91.77,91.77,0,0,0-30.847,38.147,104.7,104.7,0,0,0-8.368,42.176V417.857a5.032,5.032,0,1,0,10.065,0,5.035,5.035,0,0,0,10.071,0,5.032,5.032,0,1,0,10.065,0,5.035,5.035,0,0,0,10.071,0V376.327l4,20.777a4.051,4.051,0,0,0,8.029-.766V330.46h.006V276.866H60.85v342.27L39.878,645.33h98.079V276.866h6.3V645.33h77.118V276.866h6.837V396.338a4.048,4.048,0,0,0,8.023.766l4.006-20.777v41.529a5.035,5.035,0,0,0,10.071,0,5.032,5.032,0,1,0,10.065,0,5.035,5.035,0,0,0,10.071,0,5.032,5.032,0,1,0,10.065,0V176.924a104.8,104.8,0,0,0-8.368-42.176A91.85,91.85,0,0,0,241.3,96.6c-20.023-14.67-44.532-21.9-69.35-21.9Zm0-74.7a35.135,35.135,0,1,0,35.132,35.138A35.133,35.133,0,0,0,141.494,0Z" transform="translate(-0.985 1.5)" fill="rgba(199,12,20,0.3)" stroke="#fff" stroke-width="3"/>
</svg>